#!OML:ASF H:\Martial Arts Walks\Project 1\Capture day 1\Session 1\male.ASF
:FULLY-SPECIFIED
:DEGREES
1376
root -4.79456 14.3163 18.7776 -252.781 80.5152 -254.484
lowerback 25.1058 5.56143 -0.409694
upperback 3.16421 7.02084 -4.53601
thorax -9.82385 3.39742 -7.17194
lowerneck -0.983334 13.3378 3.40136
upperneck 3.84707 18.0901 -6.90334
head 2.43038 8.9605 -2.20149
rclavicle -9.16397e-014 3.81667e-014
rhumerus -28.0786 46.0767 -83.7108
rradius 106.353
rwrist 1.30511
rhand -7.68344 -24.2087
rfingers 7.12502
rthumb 18.2134 -53.376
lclavicle -9.16397e-014 3.81667e-014
lhumerus -30.1151 5.4884 65.2208
lradius 102.658
lwrist 32.131
lhand -29.364 12.1664
lfingers 7.12502
lthumb -2.70325 42.129
rfemur -38.8203 -27.2587 5.93315
rtibia 80.6695
rfoot -30.5027 -15.6755
rtoes -23.1054
lfemur -37.1691 8.86983 6.7904
ltibia 54.3959
lfoot 18.959 -10.021
ltoes 4.14879
1377
root -4.76862 14.2548 18.6551 -253.471 80.8252 -255.201
lowerback 24.8269 5.53275 -0.393356
upperback 3.02475 6.98529 -4.45762
thorax -9.84863 3.37227 -7.0583
lowerneck -1.02569 13.4193 3.50164
upperneck 3.95211 18.2053 -6.90924
head 2.49091 9.01618 -2.20489
rclavicle -6.19214e-014 -1.55052e-014
rhumerus -28.6924 46.0624 -84.1192
rradius 106.483
rwrist 1.31466
rhand -7.56534 -24.1963
rfingers 7.12502
rthumb 18.327 -53.3529
lclavicle -6.19214e-014 -1.55052e-014
lhumerus -30.015 5.73328 64.9654
lradius 102.889
lwrist 32.3316
lhand -29.5196 12.2555
lfingers 7.12502
lthumb -2.85352 42.2162
rfemur -39.0293 -27.3963 5.57069
rtibia 81.2086
rfoot -30.5762 -15.4906
rtoes -24.2512
lfemur -36.0853 8.25081 6.86127
ltibia 53.8609
lfoot 16.5969 -9.26823
ltoes -3.30697
1378
root -4.74917 14.1839 18.5332 -253.453 81.1993 -255.286
lowerback 24.509 5.55305 -0.339466
upperback 2.8623 7.02978 -4.27116
thorax -9.88008 3.38251 -6.86613
lowerneck -1.04746 13.443 3.43341
upperneck 4.08792 18.2483 -6.87347
head 2.53162 9.03505 -2.17498
rclavicle -2.42517e-014 2.0276e-014
rhumerus -29.407 45.9551 -84.3437
rradius 106.668
rwrist 1.21343
rhand -7.3216 -24.0842
rfingers 7.12502
rthumb 18.5615 -53.2186
lclavicle -2.42517e-014 2.0276e-014
lhumerus -29.8353 5.78693 64.8563
lradius 103.077
lwrist 32.5827
lhand -29.7248 12.4663
lfingers 7.12502
lthumb -3.05171 42.4243
rfemur -39.3637 -27.4588 5.38913
rtibia 81.7841
rfoot -30.3736 -15.8524
rtoes -26.2033
lfemur -35.161 7.98394 6.90977
ltibia 53.6418
lfoot 12.3628 -7.99511
ltoes -10.1058
1379
root -4.73249 14.1124 18.4116 -252.954 81.5093 -254.902
lowerback 24.206 5.57434 -0.293855
upperback 2.69628 7.07052 -4.13711
thorax -9.91688 3.3917 -6.72992
lowerneck -1.00035 13.4311 3.51017
upperneck 4.12955 18.2346 -6.85865
head 2.54299 9.0301 -2.18443
rclavicle -3.05134e-014 -1.07344e-014
rhumerus -30.0872 45.7394 -84.6558
rradius 106.768
rwrist 1.01163
rhand -7.10797 -24.0868
rfingers 7.12502
rthumb 18.767 -53.2015
lclavicle -3.05134e-014 -1.07344e-014
lhumerus -29.6038 5.77292 64.7807
lradius 103.276
lwrist 32.6893
lhand -29.644 12.6243
lfingers 7.12502
lthumb -2.97363 42.5833
rfemur -39.7239 -27.6242 5.09634
rtibia 82.3995
rfoot -30.4483 -15.5238
rtoes -26.9514
lfemur -34.4778 7.98003 6.83841
ltibia 53.7198
lfoot 7.92397 -6.54722
ltoes -11.9967
1380
root -4.71983 14.0462 18.2946 -251.663 81.859 -253.76
lowerback 23.9289 5.54007 -0.236076
upperback 2.52542 7.04211 -3.98789
thorax -9.97959 3.36682 -6.56662
lowerneck -1.05788 13.4659 3.59328
upperneck 4.21607 18.2824 -6.81912
head 2.58927 9.05286 -2.1743
rclavicle -1.20861e-013 3.29983e-014
rhumerus -30.6436 45.6222 -84.9087
rradius 106.882
rwrist 0.727668
rhand -7.05749 -24.1883
rfingers 7.12502
rthumb 18.8155 -53.2983
lclavicle -1.20861e-013 3.29983e-014
lhumerus -29.2988 5.86446 64.592
lradius 103.4
lwrist 32.7338
lhand -29.7663 12.7924
lfingers 7.12502
lthumb -3.09177 42.7497
rfemur -40.0962 -27.7657 4.9415
rtibia 82.9899
rfoot -30.3223 -15.5774
rtoes -28.2706
lfemur -34.1302 8.04268 6.82588
ltibia 54.0631
lfoot 4.58045 -5.23348
ltoes -16.1858
1381
root -4.71005 13.9806 18.1816 -250.083 82.181 -252.258
lowerback 23.777 5.54713 -0.244122
upperback 2.38039 7.05354 -3.80347
thorax -10.0878 3.36319 -6.35354
lowerneck -1.15802 13.4559 3.61401
upperneck 4.28873 18.2662 -6.73763
head 2.62323 9.04306 -2.14293
rclavicle 1.71551e-013 -9.93923e-015
rhumerus -31.1406 45.4474 -85.058
rradius 106.979
rwrist 0.403184
rhand -6.94583 -24.3208
rfingers 7.12502
rthumb 18.9229 -53.4203
lclavicle 1.71551e-013 -9.93923e-015
lhumerus -28.9435 5.76741 64.4776
lradius 103.617
lwrist 32.779
lhand -29.8947 13.0738
lfingers 7.12502
lthumb -3.21579 43.0293
rfemur -40.3786 -27.8488 4.70293
rtibia 83.6089
rfoot -30.401 -15.1946
rtoes -28.793
lfemur -33.9423 8.4146 6.73741
ltibia 54.5304
lfoot 1.75501 -4.23316
ltoes -19.8368
1382
root -4.69916 13.913 18.0678 -247.673 82.564 -249.922
lowerback 23.5975 5.52348 -0.172615
upperback 2.25335 7.05113 -3.57429
thorax -10.1585 3.35271 -6.12565
lowerneck -1.15743 13.4504 3.65668
upperneck 4.25234 18.2558 -6.7408
head 2.6151 9.03924 -2.15207
rclavicle 5.69518e-014 -5.68524e-014
rhumerus -31.5827 45.3292 -85.182
rradius 107.035
rwrist 0.13639
rhand -7.04148 -24.4532
rfingers 7.12502
rthumb 18.8309 -53.5617
lclavicle 5.69518e-014 -5.68524e-014
lhumerus -28.5233 5.82 64.3879
lradius 103.771
lwrist 32.7866
lhand -29.8488 13.2454
lfingers 7.12502
lthumb -3.17139 43.2016
rfemur -40.6228 -27.9166 4.56987
rtibia 84.1964
rfoot -30.1461 -15.3404
rtoes -30.1593
lfemur -34.0487 8.8803 6.73907
ltibia 55.0957
lfoot -0.758066 -3.05097
ltoes -21.3275
1383
root -4.69294 13.8516 17.9609 -244.172 82.8813 -246.565
lowerback 23.4084 5.45571 -0.130487
upperback 2.12088 6.98364 -3.34924
thorax -10.2383 3.3128 -5.86621
lowerneck -1.17095 13.4787 3.59888
upperneck 4.16371 18.2849 -6.68866
head 2.5769 9.05503 -2.12816
rclavicle 2.03754e-014 -8.34896e-015
rhumerus -31.9342 45.2809 -85.2674
rradius 107.092
rwrist -0.00436703
rhand -7.1747 -24.6444
rfingers 7.12502
rthumb 18.7028 -53.7653
lclavicle 2.03754e-014 -8.34896e-015
lhumerus -28.0779 5.80741 64.1829
lradius 103.923
lwrist 32.871
lhand -29.9254 13.3985
lfingers 7.12502
lthumb -3.24539 43.3536
rfemur -40.9286 -27.8799 4.36413
rtibia 84.821
rfoot -30.3911 -14.0849
rtoes -29.5719
lfemur -34.4469 9.4839 6.69221
ltibia 55.7057
lfoot -2.94717 -1.95078
ltoes -20.8483
1384
root -4.68836 13.792 17.8566 -240.383 83.1451 -242.87
lowerback 23.2805 5.40196 -0.0650731
upperback 2.01363 6.94015 -3.15032
thorax -10.3134 3.28465 -5.66198
lowerneck -1.16912 13.4674 3.55462
upperneck 4.04153 18.2599 -6.65856
head 2.5257 9.04469 -2.11842
rclavicle -1.8487e-014 6.36111e-015
rhumerus -32.2839 45.1837 -85.362
rradius 107.156
rwrist -0.00648072
rhand -7.41218 -24.6842
rfingers 7.12502
rthumb 18.4744 -53.8269
lclavicle -1.8487e-014 6.36111e-015
lhumerus -27.5629 5.74272 64.0455
lradius 104.097
lwrist 32.9067
lhand -29.9498 13.4358
lfingers 7.12502
lthumb -3.26902 43.3905
rfemur -41.0926 -27.7287 4.00591
rtibia 85.4252
rfoot -30.6378 -12.959
rtoes -29.3252
lfemur -34.9679 10.2493 6.6245
ltibia 56.4086
lfoot -4.82918 -1.44751
ltoes -21.3253
1385
root -4.68664 13.7223 17.755 -236.356 83.3086 -238.968
lowerback 23.1675 5.39109 -0.0716632
upperback 1.90241 6.93362 -2.96648
thorax -10.4042 3.27668 -5.44817
lowerneck -1.12412 13.4316 3.45065
upperneck 3.90497 18.2007 -6.58385
head 2.44889 9.01848 -2.09192
rclavicle 2.52457e-014 -2.38542e-015
rhumerus -32.619 44.9877 -85.4344
rradius 107.212
rwrist 0.192849
rhand -7.4331 -24.5435
rfingers 7.12502
rthumb 18.4542 -53.6881
lclavicle 2.52457e-014 -2.38542e-015
lhumerus -26.9315 5.60023 63.9625
lradius 104.242
lwrist 33.0153
lhand -29.8386 13.523
lfingers 7.12502
lthumb -3.16159 43.4793
rfemur -41.227 -27.5704 3.62652
rtibia 85.959
rfoot -30.2767 -13.3352
rtoes -31.4743
lfemur -35.6981 11.0626 6.49972
ltibia 57.239
lfoot -6.48755 -1.17211
ltoes -21.7707
1386
root -4.68323 13.6625 17.6574 -232.619 83.3597 -235.345
lowerback 23.0455 5.40313 -0.151179
upperback 1.81511 6.93505 -2.85731
thorax -10.4611 3.27756 -5.27621
lowerneck -1.09534 13.3733 3.52058
upperneck 3.77723 18.1122 -6.5894
head 2.404 8.97784 -2.11533
rclavicle -4.72114e-014 -1.27222e-014
rhumerus -32.8605 44.7344 -85.5324
rradius 107.239
rwrist 0.499759
rhand -7.4062 -24.3702
rfingers 7.12502
rthumb 18.4801 -53.5124
lclavicle -4.72114e-014 -1.27222e-014
lhumerus -26.1567 5.39213 63.8096
lradius 104.373
lwrist 33.2769
lhand -29.8601 13.4544
lfingers 7.12502
lthumb -3.18232 43.4104
rfemur -41.3942 -27.3627 3.12704
rtibia 86.5007
rfoot -30.0241 -13.21
rtoes -32.1407
lfemur -36.4828 11.804 6.27886
ltibia 58.1553
lfoot -7.92957 -1.00313
ltoes -21.9027
1387
root -4.68166 13.6036 17.5656 -229.248 83.3143 -232.098
lowerback 22.9292 5.42102 -0.297607
upperback 1.73438 6.92412 -2.79531
thorax -10.5161 3.27573 -5.11598
lowerneck -1.04198 13.317 3.52899
upperneck 3.66575 18.0243 -6.51499
head 2.34481 8.93795 -2.10639
rclavicle 3.34952e-014 -3.18055e-014
rhumerus -33.073 44.4923 -85.6651
rradius 107.269
rwrist 0.846167
rhand -7.5 -24.2517
rfingers 7.12502
rthumb 18.3899 -53.4025
lclavicle 3.34952e-014 -3.18055e-014
lhumerus -25.37 5.15319 63.5968
lradius 104.465
lwrist 33.5699
lhand -29.7582 13.513
lfingers 7.12502
lthumb -3.08391 43.4705
rfemur -41.5794 -27.1529 2.47766
rtibia 87.0682
rfoot -30.2382 -11.8933
rtoes -30.909
lfemur -37.3531 12.7428 5.94688
ltibia 59.1366
lfoot -9.28217 -1.08095
ltoes -22.0172
1388
root -4.68015 13.5419 17.4756 -225.934 83.2823 -228.864
lowerback 22.8184 5.43855 -0.501647
upperback 1.67305 6.90443 -2.67416
thorax -10.5673 3.27415 -4.85469
lowerneck -0.946195 13.2754 3.47582
upperneck 3.56862 17.9615 -6.45714
head 2.28014 8.91038 -2.09479
rclavicle 1.09829e-013 -3.57812e-014
rhumerus -33.2079 44.3949 -85.7817
rradius 107.241
rwrist 1.18432
rhand -7.57038 -24.1907
rfingers 7.12502
rthumb 18.3222 -53.3478
lclavicle 1.09829e-013 -3.57812e-014
lhumerus -24.6259 5.05282 63.4868
lradius 104.549
lwrist 33.8236
lhand -29.6727 13.5256
lfingers 7.12502
lthumb -3.00142 43.4842
rfemur -41.6757 -26.9673 1.90502
rtibia 87.5827
rfoot -30.2946 -11.1502
rtoes -30.5324
lfemur -38.2271 13.6369 5.67309
ltibia 60.1448
lfoot -10.5881 -1.19039
ltoes -21.6008
1389
root -4.67922 13.4808 17.385 -223.144 83.2473 -226.153
lowerback 22.713 5.47498 -0.701792
upperback 1.59889 6.90747 -2.58481
thorax -10.6296 3.28223 -4.63977
lowerneck -0.804503 13.2296 3.50938
upperneck 3.52522 17.898 -6.43228
head 2.2382 8.88298 -2.10739
rclavicle 7.78242e-014 2.14687e-014
rhumerus -33.4271 44.3279 -85.8699
rradius 107.297
rwrist 1.36644
rhand -7.62814 -24.1495
rfingers 7.12502
rthumb 18.2666 -53.3118
lclavicle 7.78242e-014 2.14687e-014
lhumerus -23.847 4.94876 63.3958
lradius 104.612
lwrist 34.0441
lhand -29.5699 13.5926
lfingers 7.12502
lthumb -2.90212 43.5526
rfemur -41.8243 -26.9537 1.41496
rtibia 88.0851
rfoot -30.1106 -11.2113
rtoes -31.3573
lfemur -39.0558 14.3825 5.39457
ltibia 61.1548
lfoot -11.7855 -1.1835
ltoes -20.9061
1390
root -4.67645 13.4194 17.2939 -220.008 83.1762 -223.074
lowerback 22.5608 5.50948 -0.752544
upperback 1.55424 6.94726 -2.51313
thorax -10.6108 3.30428 -4.5304
lowerneck -0.738308 13.13 3.49018
upperneck 3.59225 17.7668 -6.35582
head 2.23142 8.81887 -2.09006
rclavicle 1.20265e-014 3.73715e-014
rhumerus -33.5344 44.1971 -85.9504
rradius 107.272
rwrist 1.49478
rhand -7.71756 -24.1741
rfingers 7.12502
rthumb 18.1806 -53.3445
lclavicle 1.20265e-014 3.73715e-014
lhumerus -22.966 4.67231 63.2633
lradius 104.602
lwrist 34.4568
lhand -29.6697 13.6626
lfingers 7.12502
lthumb -2.99849 43.6213
rfemur -41.8838 -27.0345 0.931019
rtibia 88.5403
rfoot -30.1104 -10.8534
rtoes -31.3469
lfemur -39.897 15.308 5.08495
ltibia 62.1638
lfoot -13.0265 -1.35374
ltoes -20.2965
